<svg width="179" height="179" viewBox="0 0 179 179" fill="none" xmlns="http://www.w3.org/2000/svg">
<rect width="179" height="179" fill="black"/>
<path d="M90 75.2445C94.806 75.2445 95.376 75.2625 97.275 75.3495C102.153 75.5715 104.431 77.886 104.653 82.728C104.74 84.6255 104.757 85.1955 104.757 90.0015C104.757 94.809 104.739 95.3775 104.653 97.275C104.43 102.113 102.158 104.431 97.275 104.653C95.376 104.74 94.809 104.759 90 104.759C85.194 104.759 84.624 104.74 82.7265 104.653C77.8365 104.43 75.57 102.105 75.348 97.2735C75.261 95.376 75.243 94.8075 75.243 90C75.243 85.194 75.2625 84.6255 75.348 82.7265C75.5715 77.886 77.844 75.57 82.7265 75.348C84.6255 75.2625 85.194 75.2445 90 75.2445V75.2445ZM90 72C85.1115 72 84.4995 72.021 82.5795 72.108C76.0425 72.408 72.4095 76.035 72.1095 82.578C72.021 84.4995 72 85.1115 72 90C72 94.8885 72.021 95.502 72.108 97.422C72.408 103.959 76.035 107.592 82.578 107.892C84.4995 107.979 85.1115 108 90 108C94.8885 108 95.502 107.979 97.422 107.892C103.953 107.592 107.595 103.965 107.891 97.422C107.979 95.502 108 94.8885 108 90C108 85.1115 107.979 84.4995 107.892 82.5795C107.598 76.0485 103.966 72.4095 97.4235 72.1095C95.502 72.021 94.8885 72 90 72V72ZM90 80.757C84.8955 80.757 80.757 84.8955 80.757 90C80.757 95.1045 84.8955 99.2445 90 99.2445C95.1045 99.2445 99.243 95.106 99.243 90C99.243 84.8955 95.1045 80.757 90 80.757ZM90 96C86.6865 96 84 93.315 84 90C84 86.6865 86.6865 84 90 84C93.3135 84 96 86.6865 96 90C96 93.315 93.3135 96 90 96ZM99.609 78.2325C98.415 78.2325 97.4475 79.2 97.4475 80.3925C97.4475 81.585 98.415 82.5525 99.609 82.5525C100.802 82.5525 101.767 81.585 101.767 80.3925C101.767 79.2 100.802 78.2325 99.609 78.2325Z" fill="white"/>
</svg>
